<?xml version="1.0" encoding="utf-8"?>
<svg viewBox="0 0 1150 300" style="shape-rendering: geometricprecision;" width="600px" height="200px" preserveAspectRatio="none" xmlns="http://www.w3.org/2000/svg" xmlns:bx="https://boxy-svg.com">
  <defs>
    <style bx:fonts="Bungee Inline">@import url(https://fonts.googleapis.com/css2?family=Bungee+Inline%3Aital%2Cwght%400%2C400&amp;display=swap);</style>
  </defs>
  <g id="Слой_x0020_1" transform="matrix(0.016599, 0, 0, 0.016599, -41.67757, -58.840385)" style="">
    <path class="fil0" d="M24572.28 10289.18c0,352.3 -202.43,688.95 -573.12,999.86 24.29,48.5 38.02,103.12 38.02,160.92 0,200.66 -165.1,363.22 -365.76,363.22 -106.55,0 -203.53,-47.04 -270.43,-121.71 -444.23,246.44 -1002.31,470.34 -1652.6,665.22 -1168.35,350.13 -2637.72,609.75 -4278.26,740.31 -516.36,257.32 -1037.15,505.8 -1562.16,744.78 2930.16,-60.86 5569.95,-417.02 7531.08,-961.27 2133.74,-592.15 3456.47,-1398.92 3456.47,-2278.91 0,-727.6 -904.28,-1405.98 -2423.5,-1954.54 -205.83,177.42 -415.82,350 -628.81,518.74 469.53,344.5 729.07,723.82 729.07,1123.38zm-12079.4 4955.54c0,138.22 -177.97,200.52 -265.28,90.49 -1711.85,607.67 -3300.13,1044.35 -4659.79,1290.75 -2422.28,438.96 -4129.89,269.82 -4541.93,-613.52 -378.77,-813.37 415.08,-2080.89 2025.61,-3507.04 -4073.15,-1689.88 -1366.16,-3520.34 1496.33,-4315.94 1862.86,-517.77 4331.49,-866.84 7076.49,-955.62 3155.98,-1450.24 6169.1,-2435.97 8506.66,-2859.95 4679.13,-848.71 6395.58,717.68 2456.58,4172.71 1532.83,567.54 2443.45,1279.29 2443.45,2055 0,948.37 -1360.81,1799.89 -3555.97,2409.09 -2042.06,566.71 -4813.01,930.58 -7879.19,971.91 -1060.53,474.01 -2101.7,894.38 -3103.04,1257.45l0.08 4.67zm-290.21 -44.13c30.25,-93.46 139.75,-131.55 221.3,-79.42 914.88,-331.22 1863.57,-710.58 2830.35,-1135.34 -81.25,0.46 -162.66,0.75 -244.3,0.75 -3014.34,0 -6973.97,-294.88 -9818.9,-1424.56 -1597.84,1401.39 -2397.44,2631.01 -2042.48,3393.26 382.73,820.49 2036.41,965.35 4395.35,537.86 1357.88,-246.08 2946,-683.42 4658.68,-1292.55zm11163.95 -7126.29c0,28.66 -3.62,56.52 -10.44,83.11 366.1,99.08 729.24,209.57 1086.65,336.62 3868.99,-3359.77 2320.84,-4823.27 -2288.04,-3987.32 -2254.01,408.83 -5142.26,1343.96 -8182.37,2717.33 342.07,-8.26 688.12,-12.5 1037.6,-12.5 2927.76,0 5616.85,295.18 7702.78,783.86 35.02,-148.69 166.9,-256.38 321.08,-256.38 185.42,0 332.74,147.32 332.74,335.28zm-71.64 206.53c-60.66,76.75 -154.59,126.21 -261.1,126.21 -160.53,0 -296.91,-118.75 -324.93,-273.83 -2079.19,-489.98 -4768,-786.19 -7698.93,-786.19 -457.71,0 -909.55,7.24 -1354.08,21.32 -37.29,17.16 -74.6,34.38 -111.93,51.67 489.3,-23.5 990.82,-35.75 1501.57,-35.75 2611.05,0 4983.69,319.54 6703.74,835.47 821.27,246.33 1495.44,539.05 1978.77,865.08 202.1,-159.53 401.38,-322.43 597.2,-489.6 -339.34,-117.67 -683.5,-221.13 -1030.31,-314.38zm36.92 3297.62c-15.28,-39.94 -23.7,-83.24 -23.7,-128.49 0,-200.66 165.1,-363.22 363.22,-363.22 95.77,0 183.44,37.05 248.92,97.59 334.45,-281.88 516.46,-583.18 516.46,-895.15 0,-365.79 -249.39,-716.82 -700.71,-1039.08 -280.49,219.48 -577.73,441.53 -890.62,665.17 70.18,967.51 -1612.66,1569.9 -2319.43,1784.64 -265.12,80.55 -549.14,155.35 -849.77,223.7 -600.46,340.91 -1228.67,678.64 -1880.56,1009.66 1495.29,-137.05 2834.6,-382.74 3914.04,-706.22 640.89,-192.06 1188.96,-410.49 1622.15,-648.6zm-4806.52 316.01c13.07,34.85 20.91,70.44 23.93,105.89 378.48,-59.13 738.9,-127.46 1077.98,-204.05 1134.49,-644.76 2168.75,-1300.7 3074.03,-1943.92 -102.38,-568.07 -930.68,-1087.96 -2215.37,-1477.87 -1397.52,-424.15 -3327.97,-687.13 -5455.61,-687.13 -788.99,0 -1550.83,36.2 -2268.47,103.34 -69.6,33.76 -139.02,67.59 -208.14,101.52 759.12,-99.73 1591.72,-154.92 2463.91,-154.92 1757.82,0 3354.99,224.08 4513.46,585.41 2539.83,792.15 2543.32,2138.64 1.11,2930.53 -1140.38,355.23 -2706.14,577.44 -4431.87,584.32 -38.2,178.83 -197.46,313.42 -387.5,313.42 -196.43,0 -358.72,-140.48 -392.37,-325.12 -1481.24,-50.52 -2814,-260.06 -3817.4,-572.62 -997.27,-310.64 -1674.52,-727.9 -1861.17,-1198.88 -321.7,200.81 -632.62,401.68 -931.94,601.91 373.47,345.61 1020.16,658.15 1863.84,914.5 1397.61,424.64 3328.44,687.73 5456.54,687.73 966.61,0 1892.5,-54.28 2746.21,-153.33 -34.74,-181.63 65.05,-369.47 240.83,-439.33 200.66,-76.2 429.26,27.94 508,228.6zm11.3 244.54c-31.8,117.09 -115.91,217.73 -234.82,263.46 -179.22,68.06 -378.67,-5.73 -475.36,-167.04 -868.73,102.38 -1811.77,158.58 -2796.16,158.58 -2140.25,0 -4085.17,-265.52 -5495.7,-694.09 -873.94,-265.54 -1545.38,-596.28 -1936.25,-968.65 -364.33,245.92 -710.94,490.73 -1038.28,733.14 2080.18,1281.77 6132.7,1591.68 8485.47,1591.68 824.84,0 1625.49,-32.02 2388.89,-92.06 621.63,-310.23 1222.66,-626.85 1799.62,-946.93 -224.86,44.15 -457.61,84.86 -697.41,121.91zm-4217.34 -448.69c30.91,-187.91 194.72,-331.79 393.5,-331.79 200.58,0 366.86,149.91 392.72,343.54 1710.39,-7.29 3259.75,-226.95 4386.43,-577.92 2411.44,-751.14 2407.97,-1920.92 -1.11,-2672.29 -1145.88,-357.4 -2728.63,-579.05 -4473.24,-579.05 -1025.25,0 -1994.57,76.57 -2852.2,212.24 -226.28,113.59 -449.8,228.01 -670.37,343.11 34.37,-12.27 69.21,-24.39 104.64,-36.29 880.8,-295.75 2094.56,-479.28 3430.63,-479.28 1335.12,0 2549.13,183.61 3430.3,479.49 1943.99,652.76 1944.92,1765.64 0.84,2419.48 -881.22,296.36 -2095.59,480.09 -3431.14,480.09 -877.26,0 -1701.78,-79.12 -2413.95,-217.27 -59.38,84.36 -189.04,56.95 -210,-43.17 -291.9,-63.43 -562.61,-137.08 -807.52,-219.44 -766.02,-257.62 -2108.16,-967.83 -1124.3,-1834.65 -599.36,332.33 -1172.79,668.39 -1716.22,1004.86 150.41,437.7 805.11,836.97 1784.94,1142.17 991.01,308.7 2309.07,515.8 3776.05,566.17zm-1851.5 -784.06c48.37,-24.28 107.85,-12.64 143.23,29.39 710.27,140.08 1537.21,220.52 2419.27,220.52 1321.68,0 2520.68,-180.89 3388.28,-472.67 1817.59,-611.3 1816.38,-1553.16 -0.84,-2163.36 -867.53,-291.3 -2066.17,-472.07 -3387.44,-472.07 -1322.22,0 -2520.61,180.69 -3387.77,471.86 -1816.81,610.06 -1818.04,1552.63 -0.84,2163.78 249.56,83.93 526.6,158.65 826.11,222.55zm-704.08 -843.75c169,107.35 383.5,206.33 634.71,293.79 674.92,234.99 1607.95,380.77 2636.95,380.77 1031.26,0 1965.31,-145.7 2640.83,-380.57 1408.64,-489.79 1405.58,-1236.27 -0.99,-1726.27 -675.45,-235.31 -1609.1,-381.5 -2639.84,-381.5 -1028.48,0 -1961.09,146.27 -2635.96,381.69 -654.59,228.35 -1060.58,534.77 -1060.58,863.75 0,111.61 46.77,220.55 134.12,324.68 164.14,-101.3 364.42,69.87 290.76,243.66zm-91.64 99.27c-158.74,83.83 -341.56,-70.37 -283.74,-237.91 -120.08,-134.67 -184.98,-279.02 -184.98,-429.7 0,-392.79 440.83,-743.34 1151.6,-991.29 688.91,-240.32 1637.47,-389.63 2680.42,-389.63 1045.19,0 1994.79,149.23 2684.3,389.44 1524.12,530.96 1527.23,1450.68 0.99,1981.35 -689.6,239.77 -1639.61,388.51 -2685.29,388.51 -1043.44,0 -1992.4,-148.82 -2681.41,-388.71 -269.16,-93.71 -499.52,-202.15 -681.89,-322.06zm792.82 -883.51c0,82.17 -58.91,153.28 -135.98,172.61 54.46,222.94 337.63,428.59 767.24,586.72 500.28,184.15 1192.5,298.15 1957,298.15 763.54,0 1456.03,-114.11 1956.67,-298.38 1031.2,-379.56 1031.2,-950.68 0,-1330.24 -464.03,-170.8 -1092.9,-281.3 -1790.38,-296.55 27.31,7.7 53.95,17 79.82,27.8 472.74,19.41 898.73,93.41 1221.31,202.93 858.3,291.4 857.41,819.1 -0.83,1109.42 -820.4,277.52 -2117.86,277.52 -2938.26,0 -858.24,-290.32 -859.13,-818.02 -0.83,-1109.42 94.98,-32.25 198.95,-61.4 310.42,-87.01 6.12,-22.48 19.32,-42.7 36.85,-57.9 -312.13,51.13 -593.69,122.86 -831.77,210.5 -330.72,121.73 -574.65,271.61 -694.29,435.87 38.33,32.48 63.03,80.9 63.03,135.5zm-277.94 146.74c-47.06,-32.33 -77.66,-86.57 -77.66,-146.74 0,-92.67 68.91,-167.56 158.91,-176.83 130.42,-203.98 405.67,-383.24 781.39,-521.54 514.51,-189.38 1223.39,-306.63 2003.56,-306.63 779.21,0 1488.37,117.35 2003.23,306.86 1147.77,422.46 1147.77,1161.78 0,1584.24 -514.86,189.51 -1224.02,306.86 -2003.23,306.86 -780.17,0 -1489.05,-117.25 -2003.56,-306.63 -504.64,-185.75 -827.96,-445.42 -862.64,-739.59zm1905.65 -774.21c-35.31,46.31 -98.08,59.51 -148.16,30.03 -115.66,25.79 -223.02,55.48 -320.39,88.54 -736.38,250.01 -734.96,604.4 0.83,853.3 791.36,267.7 2060.1,267.7 2851.46,0 735.79,-248.9 737.21,-603.29 0.83,-853.3 -258.08,-87.62 -586.34,-151.67 -953.53,-181.64 129.64,127.85 210.23,305.54 210.23,502.58 0,388.62 -317.5,703.58 -706.12,703.58 -388.62,0 -708.66,-314.96 -708.66,-703.58 0,-194.77 79.36,-370.64 207.02,-498.14 -152.37,13.9 -297.64,33.71 -433.51,58.63zm-45.64 -172.69c17.43,8.01 32.81,20.34 44.6,35.47 202.73,-36.11 424.65,-61.19 658.72,-72.85 26.15,-11.14 53.08,-20.75 80.7,-28.73 -274.58,8.02 -537.89,30.77 -784.02,66.11zm3065.39 4645.14c-665.81,44.7 -1357.5,68.32 -2066.82,68.32 -2374.32,0 -6515.11,-316.04 -8598.71,-1642.82 -390.27,292.34 -772.82,595.93 -1142.14,914.42 2837.12,1097.87 6705.91,1387.94 9705.29,1387.94 186.44,0 371.84,-1.25 556.22,-3.62 519.78,-232.67 1034.68,-473.68 1546.16,-724.24zm-10785 -1653.55c-2221.57,-1532.13 570.04,-2817.8 2012.17,-3250.24 1300.65,-390.02 2974.74,-667.71 4843.67,-779.96 41.51,-19.59 83.13,-39.13 124.78,-58.66 -2606.03,104.25 -4944.3,444.09 -6724.22,938.81 -2781.75,773.16 -5421.23,2470.38 -1420.32,4087.59 375.92,-327 765.76,-638.12 1163.92,-937.54zm16383.44 -1458.81c-783.1,552.98 -1660.13,1114.75 -2613.1,1670.28 133.83,-35.45 263.67,-72.25 389.14,-110.37 1344.35,-408.46 2188.64,-959.6 2223.96,-1559.91zm-16272.16 1375.64c334.97,-249.07 690.24,-500.7 1064.16,-753.48 -1112.35,-1236.15 1161.88,-2123.34 2032.73,-2387.65 882.14,-267.73 1973.2,-471.84 3190.26,-587.17 42.23,-20.46 84.56,-40.89 126.96,-61.28 -1721.84,123.37 -3262.26,388.62 -4474.58,752.15 -1341.9,402.39 -4098.46,1594.17 -1939.53,3037.43zm1174.13 -827.51c317.16,-212.53 647.41,-425.79 989.62,-638.92 -239.97,-1242.25 2677.66,-1830.74 3522.16,-1965.52 82.72,-41.48 165.8,-82.86 249.25,-124.11 -1061.45,118.5 -2014.32,305.86 -2799.11,544.05 -767.1,232.82 -3001.09,1049.72 -1961.92,2184.5zm1115.03 -716.69c916.75,-566.06 1917.4,-1130.57 2983.21,-1677.91 -721.27,138.44 -3076.91,685.74 -2983.21,1677.91zm4488.36 -2269.14c-36.81,17.41 -73.6,34.81 -110.3,52.26 615.97,-48 1260.8,-73.54 1924.44,-73.54 2139.77,0 4084.31,265.41 5494.77,693.49 1288.48,391.06 2136.86,923.61 2295.4,1521.82 279.25,-200.59 545.77,-399.83 798.73,-597.01 -466.59,-305.56 -1116.79,-583.35 -1908.56,-820.83 -1708.03,-512.32 -4066.83,-829.63 -6665.1,-829.63 -625.68,0 -1237.36,18.4 -1829.38,53.44z" style="fill: rgb(43, 42, 41); fill-rule: nonzero;"/>
  </g>
  <text style="fill: rgb(51, 51, 51); font-family: &quot;Bungee Inline&quot;, helvetica, sans-serif;; font-size: 92.8px; white-space: pre;" x="172.721" y="256.858">Our Solar System</text>
</svg>